<svg width="18" height="18" viewBox="0 0 18 18" fill="none" xmlns="http://www.w3.org/2000/svg">
<g clip-path="url(#clip0_1191_21612)">
<path d="M14.625 2.25H3.375C3.07663 2.25 2.79048 2.36853 2.5795 2.5795C2.36853 2.79048 2.25 3.07663 2.25 3.375V14.625C2.25 14.9234 2.36853 15.2095 2.5795 15.4205C2.79048 15.6315 3.07663 15.75 3.375 15.75H14.625C14.9234 15.75 15.2095 15.6315 15.4205 15.4205C15.6315 15.2095 15.75 14.9234 15.75 14.625V3.375C15.75 3.07663 15.6315 2.79048 15.4205 2.5795C15.2095 2.36853 14.9234 2.25 14.625 2.25ZM6.1875 11.25C6.29875 11.25 6.40751 11.283 6.50001 11.3448C6.59251 11.4066 6.66461 11.4945 6.70718 11.5972C6.74976 11.7 6.7609 11.8131 6.73919 11.9222C6.71749 12.0314 6.66391 12.1316 6.58525 12.2102C6.50658 12.2889 6.40635 12.3425 6.29724 12.3642C6.18812 12.3859 6.07502 12.3748 5.97224 12.3322C5.86946 12.2896 5.78161 12.2175 5.7198 12.125C5.65799 12.0325 5.625 11.9238 5.625 11.8125C5.625 11.6633 5.68426 11.5202 5.78975 11.4148C5.89524 11.3093 6.03832 11.25 6.1875 11.25ZM3.375 3.375H5.625V10.222C5.24969 10.3547 4.93338 10.6158 4.73196 10.9592C4.53054 11.3025 4.45699 11.706 4.5243 12.0984C4.59162 12.4907 4.79547 12.8466 5.09982 13.1032C5.40417 13.3598 5.78943 13.5005 6.1875 13.5005C6.58557 13.5005 6.97083 13.3598 7.27518 13.1032C7.57953 12.8466 7.78338 12.4907 7.8507 12.0984C7.91801 11.706 7.84446 11.3025 7.64304 10.9592C7.44162 10.6158 7.12531 10.3547 6.75 10.222V8.10773L10.125 11.4827V14.625H3.375V3.375ZM14.625 14.625H11.25V11.25C11.2501 11.1761 11.2356 11.1029 11.2073 11.0346C11.1791 10.9664 11.1377 10.9043 11.0855 10.852L6.75 6.51727V3.375H9V5.0625C8.99994 5.13639 9.01444 5.20957 9.04267 5.27785C9.0709 5.34614 9.11231 5.40819 9.16453 5.46047L10.2895 6.58547C10.1806 6.81231 10.1243 7.06085 10.125 7.3125C10.125 7.64626 10.224 7.97252 10.4094 8.25002C10.5948 8.52753 10.8584 8.74382 11.1667 8.87155C11.4751 8.99927 11.8144 9.03269 12.1417 8.96758C12.4691 8.90246 12.7697 8.74174 13.0057 8.50574C13.2417 8.26974 13.4025 7.96906 13.4676 7.64171C13.5327 7.31437 13.4993 6.97507 13.3715 6.66672C13.2438 6.35837 13.0275 6.09482 12.75 5.9094C12.4725 5.72397 12.1463 5.625 11.8125 5.625C11.5608 5.62456 11.3123 5.68105 11.0855 5.79023L10.125 4.82977V3.375H14.625V14.625ZM11.8125 6.75C11.9238 6.75 12.0325 6.78299 12.125 6.8448C12.2175 6.90661 12.2896 6.99446 12.3322 7.09724C12.3748 7.20002 12.3859 7.31312 12.3642 7.42224C12.3425 7.53135 12.2889 7.63158 12.2102 7.71025C12.1316 7.78891 12.0314 7.84249 11.9222 7.86419C11.8131 7.8859 11.7 7.87476 11.5972 7.83218C11.4945 7.78961 11.4066 7.71751 11.3448 7.62501C11.283 7.53251 11.25 7.42375 11.25 7.3125C11.25 7.16332 11.3093 7.02024 11.4148 6.91475C11.5202 6.80926 11.6633 6.75 11.8125 6.75Z" fill="#565F6C"/>
</g>
<defs>
<clipPath id="clip0_1191_21612">
<rect width="18" height="18" fill="white"/>
</clipPath>
</defs>
</svg>
