<svg width="18" height="18" viewBox="0 0 18 18" fill="none" xmlns="http://www.w3.org/2000/svg">
<path d="M9 1.6875C7.55373 1.6875 6.13993 2.11637 4.9374 2.91988C3.73486 3.72339 2.7976 4.86544 2.24413 6.20163C1.69067 7.53781 1.54586 9.00811 1.82801 10.4266C2.11017 11.8451 2.80661 13.148 3.82928 14.1707C4.85196 15.1934 6.15492 15.8898 7.57341 16.172C8.99189 16.4541 10.4622 16.3093 11.7984 15.7559C13.1346 15.2024 14.2766 14.2651 15.0801 13.0626C15.8836 11.8601 16.3125 10.4463 16.3125 9C16.3103 7.06129 15.5391 5.20262 14.1683 3.83175C12.7974 2.46087 10.9387 1.68973 9 1.6875ZM15.1608 8.4375H12.3602C12.2344 5.87039 11.2458 4.05492 10.4351 2.98125C11.6939 3.28353 12.8265 3.97221 13.6741 4.95071C14.5217 5.92922 15.0418 7.14847 15.1615 8.4375H15.1608ZM6.76618 9.5625H11.2338C11.0714 12.4882 9.67078 14.2812 9 14.9766C8.32852 14.2805 6.9286 12.4875 6.76618 9.5625ZM6.76618 8.4375C6.9286 5.5118 8.32922 3.71883 9 3.02344C9.67149 3.72164 11.0714 5.51461 11.2338 8.4375H6.76618ZM7.56492 2.98125C6.75422 4.05492 5.76563 5.87039 5.63977 8.4375H2.83852C2.95819 7.14847 3.4783 5.92922 4.32591 4.95071C5.17353 3.97221 6.30614 3.28353 7.56492 2.98125ZM2.83852 9.5625H5.63977C5.76774 12.1296 6.75422 13.9451 7.56492 15.0188C6.30614 14.7165 5.17353 14.0278 4.32591 13.0493C3.4783 12.0708 2.95819 10.8515 2.83852 9.5625ZM10.4323 15.0188C11.243 13.9451 12.2295 12.1296 12.3574 9.5625H15.1587C15.0392 10.8512 14.5195 12.0701 13.6724 13.0486C12.8253 14.0271 11.6933 14.716 10.4351 15.0188H10.4323Z" fill="#565F6C"/>
</svg>
