<svg width="18" height="18" viewBox="0 0 18 18" fill="none" xmlns="http://www.w3.org/2000/svg">
<path d="M16.3125 14.625C16.3125 14.7742 16.2532 14.9173 16.1477 15.0227C16.0423 15.1282 15.8992 15.1875 15.75 15.1875H2.25C2.10082 15.1875 1.95774 15.1282 1.85225 15.0227C1.74676 14.9173 1.6875 14.7742 1.6875 14.625V3.375C1.6875 3.22582 1.74676 3.08274 1.85225 2.97725C1.95774 2.87176 2.10082 2.8125 2.25 2.8125C2.39918 2.8125 2.54226 2.87176 2.64775 2.97725C2.75324 3.08274 2.8125 3.22582 2.8125 3.375V14.0625H15.75C15.8992 14.0625 16.0423 14.1218 16.1477 14.2273C16.2532 14.3327 16.3125 14.4758 16.3125 14.625ZM9.28125 11.25C9.44813 11.25 9.61126 11.2005 9.75001 11.1078C9.88877 11.0151 9.99691 10.8833 10.0608 10.7291C10.1246 10.575 10.1413 10.4053 10.1088 10.2416C10.0762 10.078 9.99587 9.92763 9.87787 9.80963C9.75987 9.69163 9.60953 9.61127 9.44586 9.57871C9.28219 9.54616 9.11254 9.56287 8.95836 9.62673C8.80419 9.69059 8.67241 9.79873 8.5797 9.93749C8.48698 10.0762 8.4375 10.2394 8.4375 10.4062C8.4375 10.63 8.52639 10.8446 8.68463 11.0029C8.84286 11.1611 9.05747 11.25 9.28125 11.25ZM7.59375 7.3125C7.76063 7.3125 7.92376 7.26302 8.06251 7.1703C8.20127 7.07759 8.30941 6.94581 8.37327 6.79164C8.43713 6.63746 8.45384 6.46781 8.42129 6.30414C8.38873 6.14047 8.30837 5.99013 8.19037 5.87213C8.07237 5.75413 7.92203 5.67377 7.75836 5.64121C7.59469 5.60866 7.42504 5.62537 7.27086 5.68923C7.11669 5.75309 6.98491 5.86123 6.8922 5.99999C6.79948 6.13874 6.75 6.30187 6.75 6.46875C6.75 6.69253 6.83889 6.90714 6.99713 7.06537C7.15536 7.22361 7.36997 7.3125 7.59375 7.3125ZM5.34375 12.375C5.51063 12.375 5.67376 12.3255 5.81251 12.2328C5.95127 12.1401 6.05941 12.0083 6.12327 11.8541C6.18713 11.7 6.20384 11.5303 6.17129 11.3666C6.13873 11.203 6.05837 11.0526 5.94037 10.9346C5.82237 10.8166 5.67203 10.7363 5.50836 10.7037C5.34469 10.6712 5.17504 10.6879 5.02086 10.7517C4.86669 10.8156 4.73491 10.9237 4.6422 11.0625C4.54948 11.2012 4.5 11.3644 4.5 11.5312C4.5 11.755 4.58889 11.9696 4.74713 12.1279C4.90536 12.2861 5.11997 12.375 5.34375 12.375ZM12.0938 9C12.2606 9 12.4238 8.95052 12.5625 8.8578C12.7013 8.76509 12.8094 8.63331 12.8733 8.47914C12.9371 8.32496 12.9538 8.15531 12.9213 7.99164C12.8887 7.82797 12.8084 7.67763 12.6904 7.55963C12.5724 7.44163 12.422 7.36127 12.2584 7.32871C12.0947 7.29616 11.925 7.31287 11.7709 7.37673C11.6167 7.44059 11.4849 7.54873 11.3922 7.68749C11.2995 7.82624 11.25 7.98937 11.25 8.15625C11.25 8.38003 11.3389 8.59464 11.4971 8.75287C11.6554 8.91111 11.87 9 12.0938 9ZM13.7812 6.1875C13.9481 6.1875 14.1113 6.13802 14.25 6.0453C14.3888 5.95259 14.4969 5.82081 14.5608 5.66664C14.6246 5.51246 14.6413 5.34281 14.6088 5.17914C14.5762 5.01547 14.4959 4.86513 14.3779 4.74713C14.2599 4.62913 14.1095 4.54877 13.9459 4.51621C13.7822 4.48366 13.6125 4.50037 13.4584 4.56423C13.3042 4.62809 13.1724 4.73623 13.0797 4.87499C12.987 5.01374 12.9375 5.17687 12.9375 5.34375C12.9375 5.56753 13.0264 5.78214 13.1846 5.94037C13.3429 6.09861 13.5575 6.1875 13.7812 6.1875ZM12.375 11.5312C12.375 11.6981 12.4245 11.8613 12.5172 12C12.6099 12.1388 12.7417 12.2469 12.8959 12.3108C13.05 12.3746 13.2197 12.3913 13.3834 12.3588C13.547 12.3262 13.6974 12.2459 13.8154 12.1279C13.9334 12.0099 14.0137 11.8595 14.0463 11.6959C14.0788 11.5322 14.0621 11.3625 13.9983 11.2084C13.9344 11.0542 13.8263 10.9224 13.6875 10.8297C13.5488 10.737 13.3856 10.6875 13.2188 10.6875C12.995 10.6875 12.7804 10.7764 12.6221 10.9346C12.4639 11.0929 12.375 11.3075 12.375 11.5312Z" fill="#565F6C"/>
</svg>
