<svg width="18" height="18" viewBox="0 0 18 18" fill="none" xmlns="http://www.w3.org/2000/svg">
<path d="M7.03135 8.18648C7.11688 8.1371 7.1879 8.06608 7.23727 7.98054C7.28664 7.89501 7.31263 7.79798 7.3126 7.69922V2.63672C7.3121 2.54704 7.29016 2.45878 7.24862 2.3793C7.20708 2.29982 7.14713 2.23143 7.07378 2.17982C7.00044 2.12822 6.91581 2.0949 6.82697 2.08264C6.73813 2.07039 6.64765 2.07955 6.56307 2.10938C4.92126 2.69045 3.54056 3.83811 2.66918 5.34605C1.79779 6.85399 1.49288 8.62331 1.80924 10.3359C1.82564 10.4245 1.86307 10.5078 1.91837 10.5789C1.97368 10.65 2.04525 10.7068 2.12706 10.7445C2.20078 10.7789 2.28121 10.7967 2.3626 10.7965C2.46133 10.7965 2.55833 10.7706 2.64385 10.7212L7.03135 8.18648ZM6.1876 3.48891V7.37437L2.82104 9.31711C2.8126 9.21094 2.8126 9.10406 2.8126 9C2.8136 7.85979 3.12921 6.74196 3.72469 5.76959C4.32017 4.79722 5.17242 4.00803 6.1876 3.48891ZM9.0001 1.6875C8.85092 1.6875 8.70784 1.74676 8.60236 1.85225C8.49687 1.95774 8.4376 2.10082 8.4376 2.25V8.70609L2.89627 11.9341C2.83197 11.9714 2.77569 12.0211 2.73069 12.0802C2.68569 12.1394 2.65286 12.2069 2.6341 12.2788C2.61533 12.3507 2.61101 12.4256 2.62137 12.4992C2.63174 12.5728 2.65658 12.6436 2.69448 12.7076C3.34396 13.8117 4.27208 14.7258 5.38594 15.3585C6.49979 15.9911 7.7603 16.3201 9.04125 16.3124C10.3222 16.3047 11.5787 15.9606 12.6849 15.3147C13.791 14.6687 14.7081 13.7435 15.3443 12.6317C15.9805 11.5198 16.3135 10.2604 16.3098 8.97943C16.3062 7.69845 15.9662 6.4409 15.3238 5.33266C14.6813 4.22443 13.7591 3.30439 12.6493 2.66467C11.5395 2.02495 10.2811 1.68798 9.0001 1.6875ZM9.0001 15.1875C8.01815 15.1849 7.05077 14.9498 6.1771 14.5015C5.30343 14.0533 4.54829 13.4046 3.97346 12.6084L9.28346 9.51469C9.36889 9.46537 9.43984 9.39445 9.48921 9.30905C9.53857 9.22365 9.56461 9.12677 9.56471 9.02812V2.83781C11.1513 2.98176 12.6211 3.73208 13.6684 4.93257C14.7156 6.13305 15.2594 7.69119 15.1867 9.28259C15.1139 10.874 14.4302 12.376 13.2778 13.4759C12.1254 14.5759 10.5932 15.1889 9.0001 15.1875Z" fill="#565F6C"/>
</svg>
