<svg width="14" height="13" viewBox="0 0 14 13" fill="none" xmlns="http://www.w3.org/2000/svg">
<path d="M10.8883 5.99274L4.6581 0.207681C4.51401 0.0737718 4.32165 0 4.11655 0C3.91144 0 3.71909 0.0737718 3.57499 0.207681L3.11618 0.633613C2.81763 0.911155 2.81763 1.36224 3.11618 1.63936L8.34781 6.4973L3.11038 11.3606C2.96628 11.4945 2.88672 11.6731 2.88672 11.8634C2.88672 12.054 2.96628 12.2325 3.11038 12.3665L3.56918 12.7923C3.7134 12.9262 3.90564 13 4.11074 13C4.31585 13 4.5082 12.9262 4.6523 12.7923L10.8883 7.00198C11.0327 6.86764 11.1121 6.68829 11.1116 6.49762C11.1121 6.30622 11.0327 6.12697 10.8883 5.99274Z" fill="white"/>
</svg>
