<svg width="18" height="18" viewBox="0 0 18 18" fill="none" xmlns="http://www.w3.org/2000/svg">
<path d="M9.56292 5.6255V8.68198L12.1026 10.2057C12.2305 10.2825 12.3227 10.407 12.3588 10.5518C12.395 10.6966 12.3721 10.8498 12.2953 10.9777C12.2184 11.1056 12.0939 11.1978 11.9491 11.2339C11.8044 11.27 11.6512 11.2472 11.5232 11.1703L8.71073 9.48284C8.62749 9.43283 8.55862 9.36212 8.51081 9.2776C8.463 9.19307 8.43789 9.09761 8.43792 9.0005V5.6255C8.43792 5.47631 8.49718 5.33324 8.60267 5.22775C8.70816 5.12226 8.85124 5.063 9.00042 5.063C9.1496 5.063 9.29268 5.12226 9.39817 5.22775C9.50366 5.33324 9.56292 5.47631 9.56292 5.6255ZM15.7504 3.938C15.6012 3.938 15.4582 3.99726 15.3527 4.10275C15.2472 4.20824 15.1879 4.35131 15.1879 4.5005V5.76612C14.7414 5.24862 14.2858 4.75011 13.7732 4.2312C12.8352 3.29302 11.6414 2.65209 10.3412 2.38849C9.0409 2.12488 7.6918 2.2503 6.46241 2.74906C5.23303 3.24782 4.17788 4.09781 3.42881 5.19282C2.67975 6.28784 2.26998 7.57931 2.25071 8.90588C2.23144 10.2324 2.60353 11.5353 3.32048 12.6516C4.03743 13.7679 5.06744 14.6482 6.28182 15.1824C7.49621 15.7167 8.8411 15.8812 10.1485 15.6555C11.4558 15.4298 12.6677 14.8238 13.6326 13.9132C13.6863 13.8624 13.7296 13.8016 13.7598 13.7341C13.79 13.6666 13.8066 13.5938 13.8087 13.5199C13.8108 13.446 13.7983 13.3724 13.7719 13.3033C13.7456 13.2342 13.7059 13.171 13.6551 13.1173C13.6043 13.0636 13.5435 13.0203 13.476 12.9901C13.4085 12.9599 13.3357 12.9433 13.2618 12.9412C13.1879 12.9391 13.1143 12.9516 13.0452 12.978C12.9761 13.0043 12.9129 13.044 12.8592 13.0948C12.0548 13.8528 11.045 14.3571 9.95577 14.5446C8.86655 14.7322 7.74622 14.5947 6.73468 14.1493C5.72314 13.7039 4.86521 12.9704 4.26805 12.0404C3.67088 11.1104 3.36093 10.025 3.37691 8.91988C3.39288 7.81475 3.73407 6.73881 4.35788 5.82643C4.98168 4.91405 5.86045 4.20566 6.88444 3.78972C7.90843 3.37377 9.03227 3.26872 10.1156 3.48766C11.199 3.70661 12.1938 4.23985 12.9759 5.02081C13.5482 5.60018 14.0496 6.15847 14.5551 6.7505H12.9379C12.7887 6.7505 12.6457 6.80976 12.5402 6.91525C12.4347 7.02074 12.3754 7.16381 12.3754 7.313C12.3754 7.46218 12.4347 7.60526 12.5402 7.71074C12.6457 7.81623 12.7887 7.8755 12.9379 7.8755H15.7504C15.8996 7.8755 16.0427 7.81623 16.1482 7.71074C16.2537 7.60526 16.3129 7.46218 16.3129 7.313V4.5005C16.3129 4.35131 16.2537 4.20824 16.1482 4.10275C16.0427 3.99726 15.8996 3.938 15.7504 3.938Z" fill="#565F6C"/>
</svg>
