<svg width="243" height="35" viewBox="0 0 243 35" fill="none" xmlns="http://www.w3.org/2000/svg">
<path d="M48.6644 9.24645V28.6357H45.7383V9.24645H48.6644Z" fill="white"/>
<path d="M52.2019 16.3913H55.0286V17.5277C55.4169 17.1489 55.7483 16.8696 56.0229 16.6896C56.6858 16.273 57.4718 16.0646 58.3809 16.0646C59.432 16.0646 60.3364 16.3298 61.094 16.8601C61.8705 17.3904 62.3676 18.1716 62.5854 19.2038C62.6896 19.6963 62.7417 20.3402 62.7417 21.1357V28.6357H59.915V21.7891C59.915 20.6622 59.7871 19.8951 59.5315 19.4879C59.1811 18.9008 58.5514 18.6072 57.6423 18.6072C56.6574 18.6072 55.9567 18.9434 55.54 19.6158C55.1991 20.1839 55.0286 21.2209 55.0286 22.7266V28.6357H52.2019V16.3913Z" fill="white"/>
<path d="M66.8616 16.3913L70.0292 23.2663L73.1826 16.3913H76.3502L70.0008 29.4879L63.694 16.3913H66.8616Z" fill="white"/>
<path d="M88.3394 23.1811H79.5752C79.6226 23.7777 79.7646 24.308 80.0014 24.772C80.5695 25.8989 81.4928 26.4624 82.7712 26.4624C83.6425 26.4624 84.3764 26.1688 84.9729 25.5817C85.276 25.2692 85.6406 24.7768 86.0667 24.1044L88.4531 25.4396C87.8943 26.3677 87.3498 27.0637 86.8195 27.5277C85.6737 28.5125 84.2911 29.005 82.6718 29.005C80.7021 29.005 79.1301 28.2947 77.9559 26.8743C77.0657 25.7853 76.6207 24.3364 76.6207 22.5277C76.6207 21.3345 76.8574 20.2218 77.3309 19.1896C77.776 18.2048 78.4625 17.4377 79.3906 16.8885C80.3091 16.3393 81.3508 16.0646 82.5156 16.0646C83.9171 16.0646 85.1434 16.4529 86.1945 17.2294C87.6339 18.3089 88.3536 20.0703 88.3536 22.5135C88.3536 22.6461 88.3489 22.8686 88.3394 23.1811ZM85.4417 20.88C85.3091 20.3591 85.1197 19.9472 84.8735 19.6442C84.3243 18.9529 83.562 18.6072 82.5866 18.6072C81.5923 18.6072 80.811 19.0144 80.2428 19.8288C80.025 20.1319 79.864 20.4822 79.7599 20.88H85.4417Z" fill="white"/>
<path d="M97.9565 18.4794L95.6127 19.7294C95.2529 18.9813 94.7983 18.6072 94.2491 18.6072C93.9839 18.6072 93.7567 18.6972 93.5673 18.8771C93.3968 19.0476 93.3116 19.2512 93.3116 19.4879C93.3116 19.7625 93.4442 20.004 93.7093 20.2124C93.8987 20.3639 94.3106 20.5864 94.9451 20.88C95.9962 21.3629 96.7728 21.7796 97.2746 22.13C98.25 22.8023 98.7377 23.7209 98.7377 24.8857C98.7377 26.041 98.3068 27.0258 97.4451 27.8402C96.6118 28.6167 95.589 29.005 94.3769 29.005C92.322 29.005 90.8684 27.9964 90.0161 25.9794L92.4167 24.8714C92.6629 25.3165 92.876 25.6385 93.0559 25.8374C93.4252 26.254 93.8798 26.4624 94.4195 26.4624C94.9404 26.4624 95.3239 26.3014 95.5701 25.9794C95.7595 25.7427 95.8542 25.468 95.8542 25.1555C95.8542 24.6821 95.608 24.2938 95.1156 23.9908C94.7841 23.7919 94.0881 23.4321 93.0275 22.9112C92.1373 22.4756 91.536 22.0495 91.2235 21.6328C90.8447 21.1309 90.6553 20.5012 90.6553 19.7436C90.6553 18.6072 91.0436 17.7076 91.8201 17.0447C92.5777 16.3913 93.4584 16.0646 94.4621 16.0646C95.5606 16.0646 96.465 16.4529 97.1752 17.2294C97.4214 17.504 97.6818 17.9207 97.9565 18.4794Z" fill="white"/>
<path d="M103.98 19.0334V28.6357H101.153V19.0334H99.9457V16.3913H101.153V11.9169H103.98V16.3913H106.167V19.0334H103.98Z" fill="white"/>
<path d="M113.554 16.0646C115.581 16.0646 117.228 16.7985 118.497 18.2663C119.558 19.4879 120.088 20.9084 120.088 22.5277C120.088 24.4311 119.397 26.022 118.014 27.3004C116.802 28.4368 115.297 29.005 113.497 29.005C111.509 29.005 109.88 28.2663 108.611 26.7891C107.56 25.5675 107.034 24.1139 107.034 22.4283C107.034 20.6196 107.726 19.0665 109.108 17.7692C110.311 16.6328 111.793 16.0646 113.554 16.0646ZM113.554 18.6072C112.323 18.6072 111.371 19.0523 110.699 19.9425C110.178 20.6432 109.918 21.4908 109.918 22.4851C109.918 23.773 110.278 24.772 110.997 25.4822C111.66 26.1357 112.513 26.4624 113.554 26.4624C114.785 26.4624 115.737 26.0268 116.409 25.1555C116.94 24.4737 117.205 23.6025 117.205 22.5419C117.205 21.2919 116.845 20.3118 116.125 19.6016C115.472 18.9387 114.615 18.6072 113.554 18.6072Z" fill="white"/>
<path d="M122.489 16.3913H125.316V17.4851C125.799 16.9832 126.206 16.6375 126.538 16.4482C127.011 16.183 127.551 16.0504 128.157 16.0504C128.896 16.0504 129.672 16.2966 130.487 16.7891L129.18 19.3743C128.64 18.986 128.124 18.7919 127.631 18.7919C126.883 18.7919 126.31 19.0618 125.913 19.6016C125.515 20.1319 125.316 21.0315 125.316 22.3004V28.6357H122.489V16.3913Z" fill="white"/>
<path d="M141.297 8.87713C144.232 8.87713 146.704 9.97562 148.712 12.1726C150.492 14.1139 151.382 16.3771 151.382 18.9624C151.382 20.7427 150.932 22.4093 150.033 23.9624C149.142 25.4964 147.926 26.7133 146.382 27.6129C144.791 28.541 143.049 29.005 141.155 29.005C139.479 29.005 137.874 28.5883 136.339 27.755C134.493 26.7512 133.115 25.3781 132.206 23.6357C131.477 22.2341 131.112 20.6432 131.112 18.8629C131.112 16.0978 132.144 13.7256 134.209 11.7464C135.298 10.6953 136.557 9.92827 137.987 9.44531C139.105 9.06652 140.208 8.87713 141.297 8.87713ZM141.268 11.6328C138.996 11.6328 137.159 12.4851 135.757 14.1896C134.63 15.5627 134.067 17.13 134.067 18.8913C134.067 21.041 134.786 22.8071 136.226 24.1896C137.656 25.5627 139.308 26.2493 141.183 26.2493C142.528 26.2493 143.773 25.9084 144.919 25.2266C146.093 24.5258 146.983 23.593 147.589 22.4283C148.148 21.3677 148.427 20.2076 148.427 18.9482C148.427 16.9122 147.741 15.1745 146.368 13.7351C145.014 12.3336 143.314 11.6328 141.268 11.6328Z" fill="white"/>
<path d="M156.766 16.3913V23.4226C156.766 24.2938 156.884 24.9425 157.121 25.3686C157.519 26.0978 158.201 26.4624 159.167 26.4624C160.133 26.4624 160.814 26.0978 161.212 25.3686C161.449 24.9425 161.567 24.2938 161.567 23.4226V16.3913H164.394V23.4794C164.394 24.7578 164.219 25.7332 163.868 26.4055C163.395 27.3052 162.694 27.987 161.766 28.451C161.009 28.8203 160.142 29.005 159.167 29.005C157.528 29.005 156.217 28.4889 155.232 27.4567C154.683 26.879 154.323 26.2635 154.152 25.6101C154.01 25.0324 153.939 24.3222 153.939 23.4794V16.3913H156.766Z" fill="white"/>
<path d="M170.304 19.0334V28.6357H167.477V19.0334H166.27V16.3913H167.477V11.9169H170.304V16.3913H172.491V19.0334H170.304Z" fill="white"/>
<path d="M176.682 7.41406V17.8118C177.809 16.647 179.092 16.0646 180.531 16.0646C181.507 16.0646 182.425 16.3156 183.287 16.8175C184.395 17.4614 185.195 18.3516 185.688 19.4879C186.085 20.416 186.284 21.415 186.284 22.4851C186.284 24.5684 185.645 26.2209 184.367 27.4425C183.268 28.4841 181.971 29.005 180.475 29.005C179.073 29.005 177.809 28.4557 176.682 27.3572V28.6357H173.855V7.41406H176.682ZM180.02 18.6072C178.903 18.6072 178.003 19.0334 177.321 19.8857C176.781 20.5675 176.512 21.4482 176.512 22.5277C176.512 23.7966 176.871 24.7862 177.591 25.4964C178.245 26.1404 179.045 26.4624 179.992 26.4624C181.033 26.4624 181.867 26.0694 182.492 25.2834C183.098 24.5258 183.401 23.6357 183.401 22.6129C183.401 21.344 183.017 20.3118 182.25 19.5163C181.663 18.9103 180.92 18.6072 180.02 18.6072Z" fill="white"/>
<path d="M194.637 16.0646C196.664 16.0646 198.311 16.7985 199.58 18.2663C200.641 19.4879 201.171 20.9084 201.171 22.5277C201.171 24.4311 200.48 26.022 199.097 27.3004C197.885 28.4368 196.38 29.005 194.58 29.005C192.592 29.005 190.963 28.2663 189.694 26.7891C188.643 25.5675 188.117 24.1139 188.117 22.4283C188.117 20.6196 188.809 19.0665 190.191 17.7692C191.394 16.6328 192.876 16.0646 194.637 16.0646ZM194.637 18.6072C193.406 18.6072 192.454 19.0523 191.782 19.9425C191.261 20.6432 191.001 21.4908 191.001 22.4851C191.001 23.773 191.361 24.772 192.08 25.4822C192.743 26.1357 193.595 26.4624 194.637 26.4624C195.868 26.4624 196.82 26.0268 197.492 25.1555C198.023 24.4737 198.288 23.6025 198.288 22.5419C198.288 21.2919 197.928 20.3118 197.208 19.6016C196.555 18.9387 195.698 18.6072 194.637 18.6072Z" fill="white"/>
<path d="M206.399 16.3913V23.4226C206.399 24.2938 206.517 24.9425 206.754 25.3686C207.152 26.0978 207.834 26.4624 208.8 26.4624C209.766 26.4624 210.447 26.0978 210.845 25.3686C211.082 24.9425 211.2 24.2938 211.2 23.4226V16.3913H214.027V23.4794C214.027 24.7578 213.852 25.7332 213.501 26.4055C213.028 27.3052 212.327 27.987 211.399 28.451C210.641 28.8203 209.775 29.005 208.8 29.005C207.161 29.005 205.85 28.4889 204.865 27.4567C204.316 26.879 203.956 26.2635 203.785 25.6101C203.643 25.0324 203.572 24.3222 203.572 23.4794V16.3913H206.399Z" fill="white"/>
<path d="M217.025 16.3913H219.851V17.5277C220.24 17.1489 220.571 16.8696 220.846 16.6896C221.509 16.273 222.295 16.0646 223.204 16.0646C224.255 16.0646 225.159 16.3298 225.917 16.8601C226.693 17.3904 227.19 18.1716 227.408 19.2038C227.512 19.6963 227.564 20.3402 227.564 21.1357V28.6357H224.738V21.7891C224.738 20.6622 224.61 19.8951 224.354 19.4879C224.004 18.9008 223.374 18.6072 222.465 18.6072C221.48 18.6072 220.779 18.9434 220.363 19.6158C220.022 20.1839 219.851 21.2209 219.851 22.7266V28.6357H217.025V16.3913Z" fill="white"/>
<path d="M239.582 7.41406H242.409V28.6357H239.582V27.3572C238.455 28.4557 237.191 29.005 235.789 29.005C234.028 29.005 232.579 28.3184 231.443 26.9453C230.467 25.7711 229.98 24.2843 229.98 22.4851C229.98 20.4964 230.591 18.9008 231.812 17.6982C232.93 16.6091 234.241 16.0646 235.747 16.0646C237.177 16.0646 238.455 16.647 239.582 17.8118V7.41406ZM236.272 18.6072C235.231 18.6072 234.397 19.005 233.772 19.8004C233.166 20.558 232.863 21.4482 232.863 22.4709C232.863 23.7588 233.247 24.791 234.014 25.5675C234.61 26.1641 235.354 26.4624 236.244 26.4624C237.38 26.4624 238.28 26.041 238.943 25.1982C239.483 24.5163 239.752 23.6309 239.752 22.5419C239.752 21.2919 239.393 20.3071 238.673 19.5874C238.029 18.9339 237.229 18.6072 236.272 18.6072Z" fill="white"/>
<g clip-path="url(#clip0_1191_14817)">
<path d="M4.57812 14.5586V30.4115V30.4232H20.4451V27.0683H7.93307V27.0566V14.5586H4.57812Z" fill="white"/>
<path d="M4.57854 14.5551H7.93349V27.0531L12.512 22.4746L12.5097 9.97656H0V34.9866L4.57854 30.408V14.5551Z" fill="white"/>
<path d="M25.0217 22.4906H12.512V22.4766L7.93349 27.0551V27.0668H20.4455V30.4217H4.57854V30.4101L0 34.9886V35.0003H25.0217V22.4906Z" fill="white"/>
<path d="M21.6641 13.3258V13.3375H30.4234L30.4211 4.58046H30.4094L21.6641 4.57812V13.3258Z" fill="white"/>
<path d="M30.4094 4.57854H30.4211L30.4235 13.3356H21.6641V13.3239L17.0879 17.9001V17.9118H34.9997V0H34.988L30.4094 4.57854Z" fill="white"/>
<path d="M21.6641 4.5762L30.4094 4.57854L34.988 0H17.0879V17.9001L21.6641 13.3239V4.5762Z" fill="white"/>
</g>
<defs>
<clipPath id="clip0_1191_14817">
<rect width="35" height="35" fill="white"/>
</clipPath>
</defs>
</svg>
